<?xml version="1.0" encoding="utf-8"?>
<!-- Generator: Adobe Illustrator 27.0.1, SVG Export Plug-In . SVG Version: 6.00 Build 0)  -->
<svg version="1.1" id="Layer_1" xmlns="http://www.w3.org/2000/svg" xmlns:xlink="http://www.w3.org/1999/xlink" x="0px" y="0px"
	 viewBox="0 0 2374 1780.6" style="enable-background:new 0 0 2374 1780.6;" xml:space="preserve">
<style type="text/css">
	.st0{fill:#FFFFFF;}
</style>
<path class="st0" d="M1780.5,593.5c327.8,0,593.5,265.7,593.5,593.5c0,327.8-265.7,593.5-593.5,593.5l-593.5,0
	c327.8,0,593.5-265.7,593.5-593.5c0-327.8-265.7-593.5-593.5-593.5H1780.5z M1187,1187c-327.8,0-593.5-265.7-593.5-593.5
	C593.5,265.7,859.2,0,1187,0L593.5,0C265.7,0,0,265.7,0,593.5C0,921.3,265.7,1187,593.5,1187H1187z"/>
</svg>
