<?xml version="1.0" encoding="UTF-8"?>
<svg id="Layer_1" xmlns="http://www.w3.org/2000/svg" version="1.1" viewBox="0 0 9615.5 1394.4">
  <!-- Generator: Adobe Illustrator 29.5.1, SVG Export Plug-In . SVG Version: 2.1.0 Build 141)  -->
  <defs>
    <style>
      .st0 {
        fill: #231f20;
      }
    </style>
  </defs>
  <path class="st0" d="M1214,404.7c223.5,0,404.7,181.2,404.7,404.7s-181.2,404.7-404.7,404.7h-404.7c223.5,0,404.7-181.2,404.7-404.7s-181.2-404.7-404.7-404.7h404.7ZM809.3,809.4c-223.5,0-404.7-181.2-404.7-404.7S585.8,0,809.3,0h-404.7C181.2,0,0,181.2,0,404.7s181.2,404.7,404.7,404.7h404.7Z"/>
  <g>
    <path class="st0" d="M2327.4,1074.8c-71.3,0-131.7-9.8-181.1-29.3-49.4-19.5-89.9-45.9-121.7-79.2-31.8-33.2-55.9-70.1-72.6-110.7-16.6-40.5-27.4-81.9-32.3-123.9h227.2c6.8,36.2,19.1,65.7,36.7,88.7,17.6,23,38.9,39.6,63.8,49.8,24.9,10.3,51.5,15.4,79.9,15.4s57.4-3.9,81.4-11.7c23.9-7.8,43-19.3,57.2-34.5,14.2-15.1,21.3-33.5,21.3-55,0-32.2-9.5-57.7-28.6-76.2-19.1-18.6-44.5-33.7-76.2-45.4-31.8-11.7-66.5-22.2-104.1-31.5-37.6-9.3-75.3-20.5-112.9-33.7-37.6-13.2-72.6-30.8-104.8-52.8-32.3-22-57.9-51.1-77-87.2-19.1-36.2-28.6-82.6-28.6-139.3s13.2-98,39.6-144.4c26.4-46.4,67.2-84.8,122.4-115.1,55.2-30.3,125.8-45.4,211.8-45.4s121.2,9.5,167.1,28.6c45.9,19.1,83.8,43.7,113.6,74,29.8,30.3,52,63.1,66.7,98.2,14.7,35.2,23,69.4,24.9,102.6h-221.4c-3.9-24.4-12.5-45.2-25.7-62.3-13.2-17.1-30.6-30-52.1-38.9-21.5-8.8-45.9-13.2-73.3-13.2s-45.2,2.9-68.2,8.8c-23,5.9-42.5,16.6-58.6,32.2-16.1,15.6-24.2,38.1-24.2,67.5s9.5,46.2,28.6,62.3c19.1,16.1,44.5,29.6,76.2,40.3,31.8,10.7,66.7,21.3,104.8,31.5,38.1,10.3,76,22.7,113.6,37.4,37.6,14.7,72.3,33.5,104.1,56.4,31.8,23,57.4,52.5,77,88.7s29.3,81.6,29.3,136.4-15.9,122.9-47.7,169.3c-31.8,46.4-76.3,81.6-133.4,105.6-57.2,23.9-124.9,35.9-203.1,35.9Z"/>
    <path class="st0" d="M3193.9,1074.8c-67.5,0-131-13.7-190.6-41-59.6-27.4-107.8-69.9-144.4-127.6-36.7-57.7-55-131.5-55-221.4s11-127.1,33-175.9c22-48.9,52-89.2,90.2-121,38.1-31.8,80.4-55.2,126.8-70.4,46.4-15.1,93.1-22.7,140-22.7,67.4,0,130.5,13.7,189.1,41.1,58.6,27.4,106.3,69.6,142.9,126.8,36.7,57.2,55,131.2,55,222.1s-11,125.6-33,174.5c-22,48.9-51.6,89.4-88.7,121.7-37.2,32.3-78.7,56-124.6,71.1-45.9,15.1-92.9,22.7-140.7,22.7ZM3193.9,900.4c59.6,0,103.6-19.3,132-57.9,28.3-38.6,42.5-91.2,42.5-157.6s-13.9-116.5-41.8-156.1c-27.9-39.6-72.1-59.4-132.7-59.4s-101.9,19.8-132.7,59.4c-30.8,39.6-46.2,91.6-46.2,156.1s15.4,119,46.2,157.6c30.8,38.6,75,57.9,132.7,57.9Z"/>
    <path class="st0" d="M4403.5,312.4v744.8h-202.3v-114.4c-7.8,16.6-18.6,33.2-32.3,49.9s-29.6,31-47.7,43.3c-18.1,12.2-38.4,21.7-60.8,28.6-22.5,6.8-46.4,10.3-71.8,10.3-64.5,0-117.5-13-159.1-38.9-41.5-25.9-72.1-61.1-91.6-105.6-19.5-44.5-29.3-96-29.3-154.7v-463.3h202.3v435.5c0,53.8,10.5,94.6,31.5,122.4,21,27.9,52.5,41.8,94.6,41.8s73.3-9.8,96.8-29.3c23.5-19.5,40.6-47.6,51.3-84.3,10.7-36.7,16.1-81.4,16.1-134.2v-351.9h202.3Z"/>
    <path class="st0" d="M4623.4,1057.2V312.4h203.8v115.8c7.8-17.6,18.6-34.5,32.2-50.6,13.7-16.1,29.6-30.5,47.7-43.3s38.4-22.5,60.8-29.3,45.9-10.3,70.4-10.3c65.5,0,119,12.7,160.5,38.1,41.5,25.4,72.1,60.8,91.6,106.3,19.5,45.5,29.3,97.5,29.3,156.2v461.8h-203.8v-435.4c0-54.7-10.3-95.8-30.8-123.2-20.5-27.4-51.8-41.1-93.8-41.1s-73.6,9.5-97.5,28.6c-24,19.1-41.1,47.2-51.3,84.3-10.3,37.1-15.4,82.1-15.4,134.9v351.9h-203.8Z"/>
    <path class="st0" d="M5997.1,909.2c-12.7,33.2-30.3,62.3-52.8,87.2-22.5,24.9-49.6,44.2-81.4,57.9-31.8,13.7-69.2,20.5-112.2,20.5-63.5,0-119-15.6-166.4-46.9-47.4-31.3-83.8-76-109.2-134.1-25.4-58.2-38.1-127.3-38.1-207.5s13.4-152.2,40.3-210.4c26.9-58.2,64.5-102.9,112.9-134.1,48.4-31.3,104.3-46.9,167.9-46.9s78,7.3,107.8,22c29.8,14.7,55.2,33.5,76.2,56.5,21,23,37.4,48.1,49.1,75.5V30.9h203.8l-1.5,781.4c0,29.3,6.3,49.4,19.1,60.1,12.7,10.7,37.1,12.2,73.3,4.4v159.8c-9.8,5.9-25.4,11-46.9,15.4-21.5,4.4-42,6.6-61.6,6.6s-47.9-5.1-76.2-15.4c-28.4-10.3-52.8-26.6-73.3-49.1-20.5-22.5-30.8-50.8-30.8-85ZM5824.1,917.9c34.2-1,63.8-10.7,88.7-29.3,24.9-18.6,44.5-45.4,58.6-80.6,14.2-35.2,21.3-75.7,21.3-121.7s-7.1-82.1-21.3-117.3c-14.2-35.2-33.7-63-58.6-83.6-24.9-20.5-54.5-30.8-88.7-30.8s-65.7,10.3-91.6,30.8c-25.9,20.5-45.9,48.4-60.1,83.6-14.2,35.2-21.3,74.3-21.3,117.3s7.1,88,21.3,123.2c14.2,35.2,34.2,62.1,60.1,80.6,25.9,18.6,56.4,27.9,91.6,27.9Z"/>
    <path class="st0" d="M6785.9,1074.8c-71.3,0-131.7-9.8-181.1-29.3-49.4-19.5-89.9-45.9-121.7-79.2-31.8-33.2-55.9-70.1-72.6-110.7-16.6-40.5-27.4-81.9-32.3-123.9h227.2c6.8,36.2,19.1,65.7,36.7,88.7,17.6,23,38.9,39.6,63.8,49.8,24.9,10.3,51.5,15.4,79.9,15.4s57.4-3.9,81.4-11.7c23.9-7.8,43-19.3,57.2-34.5,14.2-15.1,21.3-33.5,21.3-55,0-32.2-9.5-57.7-28.6-76.2-19.1-18.6-44.5-33.7-76.2-45.4-31.8-11.7-66.5-22.2-104.1-31.5-37.6-9.3-75.3-20.5-112.9-33.7-37.6-13.2-72.6-30.8-104.8-52.8-32.3-22-57.9-51.1-77-87.2-19.1-36.2-28.6-82.6-28.6-139.3s13.2-98,39.6-144.4c26.4-46.4,67.2-84.8,122.4-115.1s125.8-45.4,211.8-45.4,121.2,9.5,167.1,28.6c45.9,19.1,83.8,43.7,113.6,74,29.8,30.3,52,63.1,66.7,98.2,14.7,35.2,23,69.4,24.9,102.6h-221.4c-3.9-24.4-12.5-45.2-25.7-62.3-13.2-17.1-30.6-30-52.1-38.9-21.5-8.8-45.9-13.2-73.3-13.2s-45.2,2.9-68.2,8.8c-23,5.9-42.5,16.6-58.6,32.2-16.1,15.6-24.2,38.1-24.2,67.5s9.5,46.2,28.6,62.3c19.1,16.1,44.5,29.6,76.2,40.3s66.7,21.3,104.8,31.5c38.1,10.3,76,22.7,113.6,37.4,37.6,14.7,72.3,33.5,104.1,56.4,31.8,23,57.4,52.5,77,88.7s29.3,81.6,29.3,136.4-15.9,122.9-47.7,169.3c-31.8,46.4-76.3,81.6-133.4,105.6-57.2,23.9-124.9,35.9-203.1,35.9Z"/>
    <path class="st0" d="M7401.7,1394.4c-29.3,0-55.2-1.7-77.7-5.1-22.5-3.4-38.6-6.6-48.4-9.5l1.5-174.5c8.8,1.9,21.3,3.4,37.4,4.4,16.1,1,27.6,1.5,34.5,1.5,22.5,0,45-4.9,67.4-14.7,22.5-9.8,43-26.2,61.6-49.1,18.6-23,32.2-54.5,41-94.6l-305-740.4h203.8l206.7,539.5,170.1-539.5h205.3l-294.7,794.7c-25.4,69.4-53.5,125.3-84.3,167.9-30.8,42.5-64,73.1-99.7,91.6-35.7,18.6-75.5,27.9-119.5,27.9Z"/>
    <path class="st0" d="M8105.4,1057.2V312.4h203.8v115.8c7.8-17.6,18.6-34.5,32.2-50.6,13.7-16.1,29.6-30.5,47.7-43.3,18.1-12.7,38.4-22.5,60.8-29.3,22.5-6.8,45.9-10.3,70.4-10.3,65.5,0,119,12.7,160.5,38.1,41.5,25.4,72.1,60.8,91.6,106.3,19.5,45.5,29.3,97.5,29.3,156.2v461.8h-203.8v-435.4c0-54.7-10.3-95.8-30.8-123.2-20.5-27.4-51.8-41.1-93.8-41.1s-73.6,9.5-97.5,28.6c-24,19.1-41.1,47.2-51.3,84.3-10.3,37.1-15.4,82.1-15.4,134.9v351.9h-203.8Z"/>
    <path class="st0" d="M9615.5,498.6l-168.6,67.5c-8.8-24.4-25.4-46.7-49.8-66.7-24.4-20-53.8-30.1-88-30.1-53.8,0-96.3,18.8-127.6,56.5-31.3,37.6-46.9,90.2-46.9,157.6s15.6,120.5,46.9,159.1c31.3,38.6,73.8,57.9,127.6,57.9s63.5-10,88-30,41-41.8,49.8-65.2l168.6,66c-28.4,67.5-69.1,118.3-122.4,152.5-53.3,34.2-112.7,51.3-178.1,51.3s-146.9-15.6-206-46.9c-59.1-31.3-105.1-76-137.8-134.1-32.7-58.2-49.1-127.8-49.1-208.9s16.4-150.8,49.1-208.9c32.7-58.2,78.7-102.9,137.8-134.1,59.1-31.3,127.8-46.9,206-46.9s123.6,17.1,177.4,51.3c53.8,34.2,94.8,85,123.2,152.5Z"/>
  </g>
</svg>