<?xml version="1.0" encoding="utf-8"?>
<!-- Generator: Adobe Illustrator 27.0.1, SVG Export Plug-In . SVG Version: 6.00 Build 0)  -->
<svg version="1.1" id="MOVE" xmlns="http://www.w3.org/2000/svg" xmlns:xlink="http://www.w3.org/1999/xlink" x="0px" y="0px"
	 viewBox="0 0 72.7 60" style="enable-background:new 0 0 72.7 60;" xml:space="preserve">
<path d="M72.4,28.5L72.4,28.5L72.4,28.5L72.4,28.5l0-0.1l0-0.1l0,0l0,0c-0.1-0.2-0.3-0.5-0.5-0.7L58.3,10.9
	c-1.3-1.6-3.6-1.9-5.2-0.6c-1.6,1.3-1.9,3.6-0.6,5.2l8.6,10.7l-49.6,0l8.7-10.7c1.3-1.6,1-4-0.6-5.2c-1.6-1.3-4-1-5.2,0.6L0.9,27.6
	c-0.2,0.2-0.3,0.4-0.5,0.7l0,0l0,0l0,0.1l0,0l0,0.1l0,0v0C0.1,28.9,0,29.3,0,29.8v0.1v0.1V30v0.1v0.1c0,0.4,0.1,0.9,0.3,1.3v0l0,0
	l0,0.1l0,0l0,0.1l0,0l0,0c0.1,0.2,0.3,0.5,0.5,0.7l13.5,16.7c1.3,1.6,3.6,1.9,5.2,0.6s1.9-3.6,0.6-5.2l-8.6-10.7l49.6,0l-8.7,10.7
	c-1.3,1.6-1,4,0.6,5.2c1.6,1.3,4,1,5.2-0.6l13.5-16.7c0.2-0.2,0.3-0.4,0.5-0.7l0,0l0,0l0-0.1l0,0l0-0.1l0,0v0
	c0.2-0.4,0.3-0.8,0.3-1.3v-0.1V30V30v-0.1v-0.1C72.7,29.3,72.6,28.9,72.4,28.5z"/>
</svg>
