<?xml version="1.0" encoding="utf-8"?>
<!-- Generator: Adobe Illustrator 27.0.1, SVG Export Plug-In . SVG Version: 6.00 Build 0)  -->
<svg version="1.1" id="Ebene_1" xmlns="http://www.w3.org/2000/svg" xmlns:xlink="http://www.w3.org/1999/xlink" x="0px" y="0px"
	 viewBox="0 0 122.9 60" style="enable-background:new 0 0 122.9 60;" xml:space="preserve">
<g id="SCALE">
	<g>
		<path d="M48.5,0c-2.1,0-3.8,1.7-3.8,3.8v22.5H11.5l8.7-10.7c1.3-1.6,1-4-0.6-5.2c-1.6-1.3-4-1-5.2,0.6L0.9,27.6
			c-0.2,0.2-0.3,0.4-0.5,0.7l0,0l0,0v0.1l0,0v0.1l0,0l0,0C0.1,28.9,0,29.3,0,29.8v0.1V30l0,0v0.1v0.1c0,0.4,0.1,0.9,0.3,1.3l0,0l0,0
			v0.1l0,0v0.1l0,0l0,0c0.1,0.2,0.3,0.5,0.5,0.7l13.5,16.7c1.3,1.6,3.6,1.9,5.2,0.6s1.9-3.6,0.6-5.2l-8.6-10.7h33.2v22.5
			c0,2.1,1.7,3.7,3.8,3.8c2.1,0,3.8-1.7,3.8-3.8V3.7C52.2,1.7,50.5,0,48.5,0z"/>
		<g>
			<path d="M74.4,60c2.1,0,3.8-1.7,3.8-3.8V33.7h33.2l-8.7,10.7c-1.3,1.6-1,4,0.6,5.2c1.6,1.3,4,1,5.2-0.6L122,32.4
				c0.2-0.2,0.3-0.4,0.5-0.7l0,0l0,0v-0.1l0,0v-0.1l0,0l0,0c0.2-0.4,0.3-0.9,0.3-1.3v-0.1V30l0,0v-0.1v-0.1c0-0.4-0.1-0.9-0.3-1.3
				l0,0l0,0v-0.1l0,0v-0.1l0,0l0,0c-0.1-0.2-0.3-0.5-0.5-0.7l-13.5-16.7c-1.3-1.6-3.6-1.9-5.2-0.6s-1.9,3.6-0.6,5.2l8.6,10.7H78.1
				V3.7c0-2.1-1.7-3.7-3.8-3.8c-2.1,0-3.8,1.7-3.8,3.8v52.5C70.7,58.3,72.3,60,74.4,60z"/>
		</g>
	</g>
</g>
</svg>
